<svg width="17" height="16" viewBox="0 0 17 16" fill="none" xmlns="http://www.w3.org/2000/svg">
<path d="M7.4082 2.71714e-07C8.60862 -0.000346761 9.78569 0.331734 10.8089 0.95943C11.8321 1.58713 12.6616 2.48592 13.2052 3.55616C13.7489 4.62641 13.9856 5.8263 13.889 7.02283C13.7925 8.21936 13.3664 9.36578 12.6582 10.335L16.6132 14.295L15.2032 15.705L11.2432 11.75C10.1307 12.5647 8.78708 13.0026 7.4082 13C5.6843 13 4.031 12.3152 2.81201 11.0962C1.59302 9.87721 0.908203 8.22391 0.908203 6.5C0.908203 4.77609 1.59302 3.12279 2.81201 1.90381C4.031 0.68482 5.6843 2.71714e-07 7.4082 2.71714e-07ZM7.4082 2C6.81725 2 6.23209 2.1164 5.68613 2.34254C5.14016 2.56869 4.64409 2.90016 4.22622 3.31802C3.80836 3.73588 3.47689 4.23196 3.25075 4.77793C3.0246 5.32389 2.9082 5.90905 2.9082 6.5C2.9082 7.09095 3.0246 7.67611 3.25075 8.22208C3.47689 8.76804 3.80836 9.26412 4.22622 9.68198C4.64409 10.0998 5.14016 10.4313 5.68613 10.6575C6.23209 10.8836 6.81725 11 7.4082 11C8.60168 11 9.74627 10.5259 10.5902 9.68198C11.4341 8.83807 11.9082 7.69347 11.9082 6.5C11.9082 5.30653 11.4341 4.16193 10.5902 3.31802C9.74627 2.47411 8.60168 2 7.4082 2Z" fill="#222222"/>
</svg>
