<svg width="32" height="32" viewBox="0 0 32 32" fill="none" xmlns="http://www.w3.org/2000/svg">
<path d="M27.9987 6.66699V22.667H25.1407L25.814 22.2305C25.9756 22.125 26.0612 21.9683 26.0806 21.7875L26.085 21.7085C26.088 20.7598 24.4417 19.2594 22.4773 20.426L22.3487 20.5059L18.83 22.667L17.3274 22.6674C17.4416 21.9928 17.2163 21.3946 16.7382 21.3401L16.6659 21.336L3.99805 21.3357L3.99871 6.66699H27.9987Z" fill="#FF385C" fill-opacity="0.2"/>
<path d="M29.333 4C30.0359 4 30.6118 4.54392 30.6627 5.23383L30.6663 5.33333V24C30.6663 24.7029 30.1224 25.2788 29.4325 25.3297L29.333 25.3333H21.0357L23.0883 24H29.333V5.33333H2.66634V21.3355C2.32445 21.3355 2.04267 21.5929 2.00416 21.9245L1.99967 22.0022L1.99963 25.1549C1.63177 24.9421 1.37503 24.5586 1.3377 24.1127L1.33301 24V5.33333C1.33301 4.63043 1.87693 4.05456 2.56683 4.00366L2.66634 4H29.333ZM15.9997 10C18.577 10 20.6663 12.0893 20.6663 14.6667C20.6663 17.244 18.577 19.3333 15.9997 19.3333C13.4223 19.3333 11.333 17.244 11.333 14.6667C11.333 12.0893 13.4223 10 15.9997 10ZM15.9997 11.3333C14.1587 11.3333 12.6663 12.8257 12.6663 14.6667C12.6663 16.5076 14.1587 18 15.9997 18C17.8406 18 19.333 16.5076 19.333 14.6667C19.333 12.8257 17.8406 11.3333 15.9997 11.3333ZM5.99967 8C6.36786 8 6.66634 8.29848 6.66634 8.66667C6.66634 9.03486 6.36786 9.33333 5.99967 9.33333C5.63148 9.33333 5.33301 9.03486 5.33301 8.66667C5.33301 8.29848 5.63148 8 5.99967 8Z" fill="#D42F4D"/>
<path d="M16.6665 21.3357C17.581 21.3357 17.6731 23.2103 16.421 24.1479L22.3493 20.5055C24.37 19.1935 26.0887 20.7389 26.0856 21.7082C26.0847 21.9222 25.9993 22.1095 25.8147 22.2302L14.325 29.6916C13.6935 30.1016 12.9181 30.2256 12.1903 30.033L2.49607 27.4669C2.20366 27.3895 2 27.1249 2 26.8224V22.0022C2 21.634 2.29848 21.3355 2.66667 21.3355L16.6665 21.3357Z" stroke="#0A0A0A" stroke-width="1.5"/>
<path d="M9.33301 24.6693H14.7003C15.5458 24.6693 16.1684 24.3942 16.5975 24.002" stroke="#0A0A0A" stroke-width="1.5"/>
</svg>
