<svg width="20" height="16" viewBox="0 0 20 16" fill="none" xmlns="http://www.w3.org/2000/svg">
<path d="M16 5.29344e-06C16.337 -0.000943644 16.6618 0.125724 16.9091 0.354534C17.1565 0.583344 17.3081 0.897327 17.3333 1.23334V2.66667H18.6933C19.3867 2.66667 19.9467 3.21334 20 3.9V14.6667C20 15.3667 19.4667 15.9467 18.7933 16H3.97334C3.64123 15.9957 3.32295 15.8663 3.08199 15.6377C2.84104 15.4091 2.69512 15.0981 2.67334 14.7667L2.66667 14.6667V13.3333H1.33334C0.996379 13.3343 0.671557 13.2076 0.424194 12.9788C0.176832 12.75 0.025276 12.436 5.29344e-06 12.1V1.33334C-0.000943644 0.996379 0.125724 0.671557 0.354534 0.424194C0.583344 0.176832 0.897327 0.025276 1.23334 5.29344e-06H1.33334H16ZM17.3333 12C17.3343 12.337 17.2076 12.6618 16.9788 12.9091C16.75 13.1565 16.436 13.3081 16.1 13.3333H4V14.6667H18.6667V4H17.3333V12ZM16 1.33334H1.33334V12H16V1.33334ZM14 9.33333C14.1768 9.33333 14.3464 9.40357 14.4714 9.5286C14.5964 9.65362 14.6667 9.82319 14.6667 10C14.6667 10.1768 14.5964 10.3464 14.4714 10.4714C14.3464 10.5964 14.1768 10.6667 14 10.6667C13.8232 10.6667 13.6536 10.5964 13.5286 10.4714C13.4036 10.3464 13.3333 10.1768 13.3333 10C13.3333 9.82319 13.4036 9.65362 13.5286 9.5286C13.6536 9.40357 13.8232 9.33333 14 9.33333ZM8.66667 4C9.37391 4 10.0522 4.28096 10.5523 4.78105C11.0524 5.28115 11.3333 5.95943 11.3333 6.66667C11.3333 7.37391 11.0524 8.05219 10.5523 8.55229C10.0522 9.05238 9.37391 9.33333 8.66667 9.33333C7.95943 9.33333 7.28115 9.05238 6.78105 8.55229C6.28095 8.05219 6 7.37391 6 6.66667C6 5.95943 6.28095 5.28115 6.78105 4.78105C7.28115 4.28096 7.95943 4 8.66667 4ZM8.66667 5.33334C8.31305 5.33334 7.97391 5.47381 7.72386 5.72386C7.47381 5.97391 7.33334 6.31305 7.33334 6.66667C7.33334 7.02029 7.47381 7.35943 7.72386 7.60948C7.97391 7.85953 8.31305 8 8.66667 8C9.02029 8 9.35943 7.85953 9.60948 7.60948C9.85953 7.35943 10 7.02029 10 6.66667C10 6.31305 9.85953 5.97391 9.60948 5.72386C9.35943 5.47381 9.02029 5.33334 8.66667 5.33334ZM3.33334 2.66667C3.51015 2.66667 3.67972 2.73691 3.80474 2.86193C3.92977 2.98696 4 3.15653 4 3.33334C4 3.51015 3.92977 3.67972 3.80474 3.80474C3.67972 3.92977 3.51015 4 3.33334 4C3.15653 4 2.98696 3.92977 2.86193 3.80474C2.73691 3.67972 2.66667 3.51015 2.66667 3.33334C2.66667 3.15653 2.73691 2.98696 2.86193 2.86193C2.98696 2.73691 3.15653 2.66667 3.33334 2.66667Z" fill="#0A0A0A"/>
</svg>
