<svg width="20" height="20" viewBox="0 0 20 20" fill="none" xmlns="http://www.w3.org/2000/svg">
<path d="M10 0C11.3132 -1.95685e-08 12.6136 0.258658 13.8268 0.761205C15.0401 1.26375 16.1425 2.00035 17.0711 2.92893C17.9997 3.85752 18.7362 4.95991 19.2388 6.17317C19.7413 7.38642 20 8.68678 20 10C20 11.3132 19.7413 12.6136 19.2388 13.8268C18.7362 15.0401 17.9997 16.1425 17.0711 17.0711C16.1425 17.9997 15.0401 18.7362 13.8268 19.2388C12.6136 19.7413 11.3132 20 10 20C7.34784 20 4.8043 18.9464 2.92893 17.0711C1.05357 15.1957 0 12.6522 0 10C0 7.34784 1.05357 4.8043 2.92893 2.92893C4.8043 1.05357 7.34784 3.95203e-08 10 0ZM10 5.33333C9.2349 5.33423 8.49341 5.59831 7.89997 6.08122C7.30654 6.56414 6.89729 7.23651 6.74094 7.98546C6.58458 8.73441 6.69063 9.51435 7.04128 10.1944C7.39193 10.8744 7.96584 11.4131 8.66667 11.72V13.12L8.56667 13.14C6.68328 13.5149 5.02208 14.6136 3.94 16.2C5.50667 17.7267 7.64 18.6667 10 18.6667C12.36 18.6667 14.4933 17.7267 16.06 16.2C14.9795 14.615 13.3209 13.5165 11.44 13.14L11.3333 13.12V11.72C11.9043 11.4716 12.3942 11.0683 12.7477 10.5558C13.1012 10.0432 13.3041 9.44193 13.3333 8.82V8.66667C13.3333 7.78261 12.9821 6.93477 12.357 6.30964C11.7319 5.68452 10.8841 5.33333 10 5.33333ZM10 1.33333C8.39388 1.333 6.81926 1.77899 5.45186 2.62153C4.08447 3.46406 2.9781 4.67 2.25623 6.10476C1.53436 7.53952 1.22538 9.14665 1.36378 10.7468C1.50217 12.3469 2.0825 13.8772 3.04 15.1667C3.98575 13.8913 5.26321 12.8998 6.73333 12.3L6.96667 12.2133L6.95333 12.2C6.46757 11.7822 6.07304 11.2689 5.79433 10.6919C5.51562 10.115 5.3587 9.48688 5.33333 8.84667V8.66667C5.33401 7.89274 5.52716 7.13114 5.89538 6.45042C6.2636 5.76971 6.79534 5.19126 7.44272 4.76716C8.09009 4.34306 8.83278 4.08662 9.60391 4.02093C10.375 3.95525 11.1504 4.08237 11.8602 4.39087C12.57 4.69936 13.1919 5.17954 13.6699 5.78817C14.148 6.39679 14.4672 7.11476 14.5987 7.87742C14.7303 8.64007 14.6701 9.42348 14.4236 10.1571C14.1771 10.8907 13.7521 11.5515 13.1867 12.08L13.0333 12.2133L13.06 12.2267C14.6133 12.8133 15.9667 13.8333 16.96 15.16C17.9156 13.8705 18.4943 12.3409 18.6317 10.7418C18.7691 9.14272 18.4597 7.53687 17.7381 6.10326C17.0164 4.66965 15.9109 3.46459 14.5446 2.62238C13.1783 1.78018 11.605 1.33392 10 1.33333Z" fill="#0A0A0A"/>
</svg>
