<svg width="18" height="19" viewBox="0 0 18 19" fill="none" xmlns="http://www.w3.org/2000/svg">
<path d="M11.5 3.33317V1.6665V3.33317ZM11.5 3.33317V4.99984V3.33317ZM11.5 3.33317H7.75H11.5ZM1.5 8.33317V15.8332C1.5 16.2752 1.67559 16.6991 1.98816 17.0117C2.30072 17.3242 2.72464 17.4998 3.16667 17.4998H14.8333C15.2754 17.4998 15.6993 17.3242 16.0118 17.0117C16.3244 16.6991 16.5 16.2752 16.5 15.8332V8.33317H1.5Z" stroke="#252B5C" stroke-width="1.6" stroke-linecap="round" stroke-linejoin="round"/>
<path d="M1.5 8.33301V4.99967C1.5 4.55765 1.67559 4.13372 1.98816 3.82116C2.30072 3.5086 2.72464 3.33301 3.16667 3.33301H4.83333" stroke="#252B5C" stroke-width="1.6" stroke-linecap="round" stroke-linejoin="round"/>
<path d="M4.8335 1.6665V4.99984" stroke="#252B5C" stroke-width="1.6" stroke-linecap="round" stroke-linejoin="round"/>
<path d="M16.4998 8.33301V4.99967C16.4998 4.55765 16.3242 4.13372 16.0117 3.82116C15.6991 3.5086 15.2752 3.33301 14.8332 3.33301H14.4165" stroke="#252B5C" stroke-width="1.6" stroke-linecap="round" stroke-linejoin="round"/>
</svg>
