<svg width="24" height="21" viewBox="0 0 24 21" fill="none" xmlns="http://www.w3.org/2000/svg">
<path d="M12.4082 18.9998C17.6582 15.4523 22.9082 11.4998 22.9082 6.24979C22.9102 5.55979 22.7757 4.87621 22.5126 4.23836C22.2495 3.60051 21.8628 3.02096 21.3749 2.53306C20.887 2.04516 20.3075 1.65852 19.6696 1.39539C19.0318 1.13225 18.3482 0.997808 17.6582 0.999788C16.3082 0.999788 14.9732 1.50979 13.9457 2.53729L12.4082 4.07479L10.8707 2.53729C10.3842 2.04793 9.80575 1.65958 9.16862 1.39459C8.53149 1.12959 7.84825 0.993164 7.15821 0.993164C6.46816 0.993164 5.78493 1.12959 5.1478 1.39459C4.51067 1.65958 3.93221 2.04793 3.44571 2.53729C2.95755 3.02434 2.57042 3.60304 2.30657 4.24014C2.04272 4.87725 1.90734 5.56021 1.90821 6.24979C1.90821 11.4998 7.15821 15.4523 12.4082 18.9998Z" stroke="#B0B0B0" stroke-width="2"/>
</svg>
