<svg version="1.1" id="Layer_1" xmlns="http://www.w3.org/2000/svg" xmlns:xlink="http://www.w3.org/1999/xlink" x="0px" y="0px"
	 width="100%" viewBox="0 0 64 64" enable-background="new 0 0 64 64" xml:space="preserve">
<path fill="#B0B0B0" opacity="1.000000" stroke="none" 
	d="
M1.000000,56.000000 
	C1.000000,41.979103 1.000000,27.958210 1.420472,13.486485 
	C4.237126,12.040596 6.601890,10.289200 9.035208,10.188119 
	C17.310396,9.844360 25.908649,8.616450 32.813690,15.121929 
	C33.385910,14.776988 33.828735,14.578159 34.191383,14.281365 
	C41.126186,8.605913 49.338181,9.808973 57.285145,10.276609 
	C59.901123,10.430546 62.430840,12.050438 65.000000,13.000000 
	C65.000000,27.020895 65.000000,41.041790 64.589630,55.531387 
	C62.005222,55.431545 59.859692,54.686497 57.651428,54.329685 
	C52.391201,53.479752 47.119808,52.459393 41.817703,52.182652 
	C37.439079,51.954105 33.014217,52.811310 28.602043,52.968658 
	C24.288666,53.122486 19.921091,52.611996 15.658119,53.099606 
	C10.726023,53.663754 5.882167,54.999340 1.000000,56.000000 
M30.997026,20.088680 
	C30.874699,19.455032 30.979710,18.542856 30.595894,18.229582 
	C24.977499,13.643826 18.494303,12.091576 11.432937,13.390837 
	C10.472770,13.567504 9.130154,15.328703 9.109946,16.378286 
	C8.928776,25.788389 9.004219,35.203434 9.004219,44.223427 
	C16.568388,45.223217 23.602085,46.152889 30.999731,47.130669 
	C30.999731,38.820591 30.999731,29.901085 30.997026,20.088680 
M35.818275,17.754932 
	C35.818275,27.744507 35.818275,37.734081 35.818275,47.030636 
	C42.391735,46.160255 49.432114,45.228050 56.755508,44.258373 
	C56.755508,34.576069 56.755508,24.517143 56.755508,14.453992 
	C49.361805,11.216885 42.795792,13.553011 35.818275,17.754932 
M60.000771,45.270489 
	C59.866581,46.494267 59.732388,47.718044 59.582325,49.086571 
	C57.355728,49.086571 55.539761,49.086571 53.723793,49.086571 
	C53.697422,49.262386 53.671047,49.438202 53.644672,49.614017 
	C56.355690,50.262829 59.066704,50.911644 61.375305,51.464149 
	C61.375305,39.910473 61.375305,28.524229 61.375305,17.137985 
	C60.917187,17.143511 60.459064,17.149038 60.000946,17.154564 
	C60.000946,26.209473 60.000946,35.264381 60.000771,45.270489 
M4.173438,51.462151 
	C6.822580,50.817715 9.471723,50.173279 12.120865,49.528839 
	C12.087665,49.296200 12.054465,49.063564 12.021265,48.830925 
	C10.107718,48.830925 8.194171,48.830925 5.615459,48.830925 
	C5.615459,38.011612 5.615459,27.572273 5.615459,17.132935 
	C5.084335,17.138453 4.553210,17.143969 4.022085,17.149487 
	C4.022085,28.311398 4.022085,39.473309 4.173438,51.462151 
z"/>
<path fill="#000000" opacity="1.000000" stroke="none" 
	d="
M1.000000,56.491051 
	C5.882167,54.999340 10.726023,53.663754 15.658119,53.099606 
	C19.921091,52.611996 24.288666,53.122486 28.602043,52.968658 
	C33.014217,52.811310 37.439079,51.954105 41.817703,52.182652 
	C47.119808,52.459393 52.391201,53.479752 57.651428,54.329685 
	C59.859692,54.686497 62.005222,55.431545 64.589630,56.000046 
	C65.000000,58.982254 65.000000,61.964508 65.000000,64.967377 
	C43.666656,64.967377 22.333323,64.967377 1.000000,64.967377 
	C1.000000,62.283875 1.000000,59.632984 1.000000,56.491051 
z"/>
<path fill="#000000" opacity="1.000000" stroke="none" 
	d="
M65.000000,12.520824 
	C62.430840,12.050438 59.901123,10.430546 57.285145,10.276609 
	C49.338181,9.808973 41.126186,8.605913 34.191383,14.281365 
	C33.828735,14.578159 33.385910,14.776988 32.813690,15.121929 
	C25.908649,8.616450 17.310396,9.844360 9.035208,10.188119 
	C6.601890,10.289200 4.237126,12.040596 1.420472,13.017826 
	C1.000000,9.020953 1.000000,5.041906 1.000017,1.056247 
	C22.333372,1.049635 43.666710,1.049635 65.000000,1.049635 
	C65.000000,4.746730 65.000000,8.394190 65.000000,12.520824 
z"/>
<path fill="#000000" opacity="1.000000" stroke="none" 
	d="
M30.998379,20.535130 
	C30.999731,29.901085 30.999731,38.820591 30.999731,47.130669 
	C23.602085,46.152889 16.568388,45.223217 9.004219,44.223427 
	C9.004219,35.203434 8.928776,25.788389 9.109946,16.378286 
	C9.130154,15.328703 10.472770,13.567504 11.432937,13.390837 
	C18.494303,12.091576 24.977499,13.643826 30.595894,18.229582 
	C30.979710,18.542856 30.874699,19.455032 30.998379,20.535130 
z"/>
<path fill="#000000" opacity="1.000000" stroke="none" 
	d="
M36.107689,17.451946 
	C42.795792,13.553011 49.361805,11.216885 56.755508,14.453992 
	C56.755508,24.517143 56.755508,34.576069 56.755508,44.258373 
	C49.432114,45.228050 42.391735,46.160255 35.818275,47.030636 
	C35.818275,37.734081 35.818275,27.744507 36.107689,17.451946 
z"/>
<path fill="#000000" opacity="1.000000" stroke="none" 
	d="
M60.000858,44.794891 
	C60.000946,35.264381 60.000946,26.209473 60.000946,17.154564 
	C60.459064,17.149038 60.917187,17.143511 61.375305,17.137985 
	C61.375305,28.524229 61.375305,39.910473 61.375305,51.464149 
	C59.066704,50.911644 56.355690,50.262829 53.644672,49.614017 
	C53.671047,49.438202 53.697422,49.262386 53.723793,49.086571 
	C55.539761,49.086571 57.355728,49.086571 59.582325,49.086571 
	C59.732388,47.718044 59.866581,46.494267 60.000858,44.794891 
z"/>
<path fill="#000000" opacity="1.000000" stroke="none" 
	d="
M4.097761,51.048683 
	C4.022085,39.473309 4.022085,28.311398 4.022085,17.149487 
	C4.553210,17.143969 5.084335,17.138453 5.615459,17.132935 
	C5.615459,27.572273 5.615459,38.011612 5.615459,48.830925 
	C8.194171,48.830925 10.107718,48.830925 12.021265,48.830925 
	C12.054465,49.063564 12.087665,49.296200 12.120865,49.528839 
	C9.471723,50.173279 6.822580,50.817715 4.097761,51.048683 
z"/>
</svg>