<svg width="30" height="31" viewBox="0 0 30 31" fill="none" xmlns="http://www.w3.org/2000/svg">
<path fill-rule="evenodd" clip-rule="evenodd" d="M14.0441 14.5603C13.1198 14.5603 12.3676 13.8081 12.3676 12.8838C12.3676 11.9595 13.1198 11.2073 14.0441 11.2073C14.9684 11.2073 15.7206 11.9595 15.7206 12.8838C15.7206 13.8081 14.9684 14.5603 14.0441 14.5603M14.044 8.9721C11.8869 8.9721 10.1321 10.7268 10.1321 12.8839C10.1321 15.041 11.8869 16.7957 14.044 16.7957C16.201 16.7957 17.9558 15.041 17.9558 12.8839C17.9558 10.7268 16.201 8.9721 14.044 8.9721M14.0444 24.2243C12.1723 22.4539 7.33839 17.4837 7.33839 13.3561C7.33839 9.70697 10.346 6.73734 14.0444 6.73734C17.7427 6.73734 20.7503 9.70697 20.7503 13.3561C20.7503 17.4837 15.9164 22.4539 14.0444 24.2243M14.0443 4.50195C9.11432 4.50195 5.10303 8.473 5.10303 13.3561C5.10303 19.4753 12.9814 26.2975 13.3167 26.5847C13.5268 26.7647 13.785 26.8552 14.0443 26.8552C14.3036 26.8552 14.5618 26.7647 14.7719 26.5847C15.1072 26.2975 22.9856 19.4753 22.9856 13.3561C22.9856 8.473 18.9743 4.50195 14.0443 4.50195Z" fill="#9691B5"/>
</svg>
