<svg width="23" height="23" viewBox="0 0 23 23" fill="none" xmlns="http://www.w3.org/2000/svg">
<path d="M18.9082 0.500002C19.8748 0.499066 20.8045 0.871425 21.5032 1.53939C22.2019 2.20735 22.6157 3.11931 22.6582 4.085V14.75C22.6591 15.7166 22.2868 16.6463 21.6188 17.345C20.9509 18.0437 20.0389 18.4575 19.0732 18.5H14.5282L11.4082 22.31L8.28821 18.5H3.90821C2.97085 18.4999 2.06752 18.1487 1.3762 17.5157C0.684877 16.8827 0.255692 16.0137 0.173205 15.08L0.158205 14.915V4.25C0.157269 3.28338 0.529628 2.35373 1.19759 1.65502C1.86555 0.956319 2.77752 0.542533 3.74321 0.500002H3.90821H18.9082ZM18.9082 2H3.90821C3.33414 1.99897 2.78139 2.2174 2.3631 2.61059C1.94482 3.00377 1.69265 3.54197 1.65821 4.115V14.75C1.65717 15.3241 1.8756 15.8768 2.26879 16.2951C2.66197 16.7134 3.20017 16.9656 3.77321 17H9.00821L11.4082 19.94L13.8082 17H18.9082C19.4823 17.001 20.035 16.7826 20.4533 16.3894C20.8716 15.9962 21.1238 15.458 21.1582 14.885V4.25C21.1592 3.67593 20.9408 3.12318 20.5476 2.7049C20.1544 2.28662 19.6162 2.03444 19.0432 2H18.9082Z" fill="#B0B0B0"/>
</svg>
