<svg width="23" height="24" viewBox="0 0 23 24" fill="none" xmlns="http://www.w3.org/2000/svg">
<path d="M11.4023 0.75C12.8797 0.75 14.3426 1.04099 15.7075 1.60636C17.0724 2.17172 18.3126 3.00039 19.3573 4.04505C20.402 5.08971 21.2306 6.3299 21.796 7.69481C22.3614 9.05972 22.6523 10.5226 22.6523 12C22.6523 13.4774 22.3614 14.9403 21.796 16.3052C21.2306 17.6701 20.402 18.9103 19.3573 19.955C18.3126 20.9996 17.0724 21.8283 15.7075 22.3936C14.3426 22.959 12.8797 23.25 11.4023 23.25C8.41866 23.25 5.55718 22.0647 3.44739 19.955C1.33761 17.8452 0.152344 14.9837 0.152344 12C0.152344 9.01631 1.33761 6.15483 3.44739 4.04505C5.55718 1.93526 8.41866 0.75 11.4023 0.75ZM11.4023 6.75C10.5416 6.75101 9.70743 7.04809 9.03981 7.59138C8.3722 8.13466 7.9118 8.89107 7.7359 9.73364C7.56 10.5762 7.6793 11.4536 8.07378 12.2187C8.46826 12.9837 9.11391 13.5897 9.90234 13.935V15.51L9.78984 15.5325C7.67103 15.9542 5.80219 17.1903 4.58484 18.975C6.34734 20.6925 8.74734 21.75 11.4023 21.75C14.0573 21.75 16.4573 20.6925 18.2198 18.975C17.0043 17.1919 15.1384 15.9561 13.0223 15.5325L12.9023 15.51V13.935C13.5447 13.6556 14.0959 13.2019 14.4935 12.6253C14.8912 12.0486 15.1194 11.3722 15.1523 10.6725V10.5C15.1523 9.50544 14.7573 8.55161 14.054 7.84835C13.3507 7.14509 12.3969 6.75 11.4023 6.75ZM11.4023 2.25C9.59546 2.24963 7.82401 2.75136 6.28569 3.69922C4.74737 4.64707 3.50271 6.00375 2.6906 7.61785C1.8785 9.23196 1.5309 11.04 1.68659 12.8401C1.84229 14.6403 2.49516 16.3618 3.57234 17.8125C4.63631 16.3777 6.07345 15.2622 7.72734 14.5875L7.98984 14.49L7.97484 14.475C7.42836 14.005 6.98452 13.4275 6.67097 12.7784C6.35742 12.1294 6.18088 11.4227 6.15234 10.7025V10.5C6.15311 9.62934 6.3704 8.77253 6.78465 8.00673C7.1989 7.24092 7.7971 6.59017 8.5254 6.11305C9.2537 5.63594 10.0892 5.34745 10.9567 5.27355C11.8243 5.19965 12.6966 5.34267 13.4951 5.68973C14.2936 6.03678 14.9932 6.57698 15.531 7.26169C16.0688 7.94639 16.4279 8.7541 16.5759 9.61209C16.7239 10.4701 16.6562 11.3514 16.3789 12.1767C16.1016 13.0021 15.6234 13.7455 14.9873 14.34L14.8148 14.49L14.8448 14.505C16.5923 15.165 18.1148 16.3125 19.2323 17.805C20.3074 16.3543 20.9585 14.6335 21.113 12.8346C21.2676 11.0356 20.9195 9.22898 20.1077 7.61617C19.2958 6.00335 18.0521 4.64766 16.515 3.70018C14.9779 2.7527 13.208 2.25066 11.4023 2.25Z" fill="#B0B0B0"/>
</svg>
