<svg width="24" height="24" viewBox="0 0 24 24" fill="none" xmlns="http://www.w3.org/2000/svg">
<path d="M16.1582 15.75L22.9082 22.5M10.1582 18C11.2416 18 12.3144 17.7866 13.3153 17.372C14.3163 16.9574 15.2258 16.3497 15.9918 15.5836C16.7579 14.8175 17.3656 13.9081 17.7802 12.9071C18.1948 11.9062 18.4082 10.8334 18.4082 9.75C18.4082 8.66659 18.1948 7.5938 17.7802 6.59286C17.3656 5.59193 16.7579 4.68245 15.9918 3.91637C15.2258 3.15029 14.3163 2.5426 13.3153 2.12799C12.3144 1.71339 11.2416 1.5 10.1582 1.5C7.97017 1.5 5.87175 2.36919 4.32457 3.91637C2.7774 5.46354 1.9082 7.56196 1.9082 9.75C1.9082 11.938 2.7774 14.0365 4.32457 15.5836C5.87175 17.1308 7.97017 18 10.1582 18Z" stroke="#B0B0B0" stroke-width="2"/>
</svg>
