<svg width="21" height="24" viewBox="0 0 21 24" fill="none" xmlns="http://www.w3.org/2000/svg">
<path d="M10.4082 0.75C11.9082 0.75 13.0032 1.47 13.9707 3.2025L14.3682 3.9675C16.2149 7.64276 17.9903 11.3535 19.6932 15.0975L19.8057 15.36C20.3082 16.56 20.4807 17.22 20.5257 17.91V18.2175L20.5332 18.39C20.5332 21.435 18.3732 23.25 15.7632 23.25C14.0982 23.25 12.3507 22.305 10.7382 20.7075L10.5432 20.5125L10.4157 20.385H10.4007L10.2732 20.52C8.7357 22.095 7.0707 23.085 5.4582 23.235L5.2482 23.2425L5.0532 23.25C2.4432 23.25 0.283203 21.435 0.283203 18.39V18.0375C0.305703 17.34 0.455703 16.71 0.905703 15.6075L1.0707 15.21C1.7982 13.485 5.6307 5.475 6.8457 3.1875C7.8207 1.47 8.9082 0.75 10.4082 0.75ZM10.4082 2.25C9.4782 2.25 8.8707 2.655 8.1657 3.9075L7.7757 4.6575C5.9475 8.29827 4.18968 11.974 2.5032 15.6825L2.2407 16.3125C1.99645 16.8429 1.84428 17.411 1.7907 17.9925L1.7832 18.24V18.39C1.7832 20.55 3.2157 21.75 5.0532 21.75C6.3807 21.75 7.9557 20.82 9.4257 19.2375C7.7007 17.0325 6.5307 14.4 6.5307 12.555C6.5307 10.365 7.9857 8.5125 10.4157 8.49C12.8307 8.5125 14.2857 10.365 14.2857 12.555C14.2857 14.3925 13.1157 17.025 11.3907 19.23C12.8682 20.8275 14.4357 21.75 15.7632 21.75C17.6007 21.75 19.0332 20.55 19.0332 18.39V18.09C18.9829 17.4037 18.7995 16.7337 18.4932 16.1175L18.3057 15.6675C17.5107 13.8075 13.8132 6.09 12.6582 3.9225C11.9457 2.6475 11.3382 2.25 10.4082 2.25ZM10.4157 9.99C8.9082 10.005 8.0307 11.1225 8.0307 12.555C8.0307 13.905 8.9157 15.99 10.2507 17.835L10.4007 18.0525L10.5357 17.8725C11.8332 16.0875 12.7107 14.0775 12.7857 12.72V12.555C12.7857 11.13 11.9082 10.005 10.4157 9.99Z" fill="#B0B0B0"/>
</svg>
