<svg width="23" height="21" viewBox="0 0 23 21" fill="none" xmlns="http://www.w3.org/2000/svg">
<path d="M11.6328 19.3094C16.8828 15.7619 22.1328 11.8094 22.1328 6.55936C22.1348 5.86936 22.0004 5.18578 21.7372 4.54793C21.4741 3.91008 21.0874 3.33053 20.5995 2.84263C20.1116 2.35473 19.5321 1.96809 18.8942 1.70496C18.2564 1.44182 17.5728 1.30738 16.8828 1.30936C15.5328 1.30936 14.1978 1.81936 13.1703 2.84686L11.6328 4.38436L10.0953 2.84686C9.60881 2.3575 9.03036 1.96915 8.39323 1.70416C7.7561 1.43916 7.07286 1.30273 6.38282 1.30273C5.69277 1.30273 5.00954 1.43916 4.37241 1.70416C3.73528 1.96915 3.15682 2.3575 2.67032 2.84686C2.18216 3.33391 1.79503 3.91261 1.53118 4.54972C1.26733 5.18682 1.13195 5.86978 1.13282 6.55936C1.13282 11.8094 6.38282 15.7619 11.6328 19.3094Z" fill="#FF0000" stroke="white" stroke-width="1.5"/>
</svg>
